<svg width="53" height="53" viewBox="0 0 53 53" fill="none" xmlns="http://www.w3.org/2000/svg">
<path d="M26.5 36.8353L18.401 40.3193C17.2339 40.822 16.1253 40.7281 15.0752 40.0376C14.0251 39.3515 13.5 38.378 13.5 37.117V12.3368C13.5 11.3387 13.8344 10.506 14.5032 9.83863C15.1719 9.1713 16.0047 8.83691 17.0013 8.83546H27.5833C27.891 8.83546 28.1481 8.93946 28.3547 9.14746C28.5612 9.35546 28.6652 9.6133 28.6667 9.92096C28.6681 10.2286 28.5641 10.4857 28.3547 10.6923C28.1452 10.8989 27.8881 11.0021 27.5833 11.0021H17.0013C16.6677 11.0021 16.3614 11.1408 16.0827 11.4181C15.8039 11.6955 15.6652 12.0017 15.6667 12.3368V37.0195C15.6667 37.4918 15.8682 37.8666 16.2712 38.144C16.6742 38.4213 17.0974 38.4625 17.5408 38.2675L26.5 34.4021L35.4592 38.2696C35.9026 38.4632 36.3258 38.4213 36.7288 38.144C37.1318 37.8666 37.3333 37.4911 37.3333 37.0173V25.0855C37.3333 24.7778 37.4373 24.5207 37.6453 24.3141C37.8533 24.1076 38.1112 24.0036 38.4188 24.0021C38.7265 24.0007 38.9836 24.1047 39.1902 24.3141C39.3967 24.5236 39.5 24.7807 39.5 25.0855V37.1148C39.5 38.3758 38.9749 39.3508 37.9248 40.0398C36.8747 40.7288 35.7661 40.822 34.599 40.3193L26.5 36.8353ZM26.5 11.0021H15.6667H28.6667H26.5ZM37.3333 15.3355H34.0833C33.7757 15.3355 33.5186 15.2315 33.312 15.0235C33.1054 14.8155 33.0014 14.5576 33 14.25C32.9986 13.9423 33.1026 13.6852 33.312 13.4786C33.5214 13.2721 33.7786 13.1688 34.0833 13.1688H37.3333V9.9188C37.3333 9.61113 37.4373 9.35402 37.6453 9.14746C37.8533 8.94091 38.1112 8.83691 38.4188 8.83546C38.7265 8.83402 38.9836 8.93802 39.1902 9.14746C39.3967 9.35691 39.5 9.61402 39.5 9.9188V13.1688H42.75C43.0577 13.1688 43.3148 13.2728 43.5213 13.4808C43.7279 13.6888 43.8319 13.9466 43.8333 14.2543C43.8348 14.562 43.7308 14.8191 43.5213 15.0256C43.3119 15.2322 43.0548 15.3355 42.75 15.3355H39.5V18.5855C39.5 18.8931 39.396 19.1502 39.188 19.3568C38.98 19.5634 38.7222 19.6674 38.4145 19.6688C38.1068 19.6702 37.8497 19.5662 37.6432 19.3568C37.4366 19.1474 37.3333 18.8902 37.3333 18.5855V15.3355Z" fill="#F0F5ED"/>
</svg>
